<?xml version="1.0" encoding="utf-8"?>
<!-- Generator: Adobe Illustrator 22.1.0, SVG Export Plug-In . SVG Version: 6.00 Build 0)  -->
<svg version="1.1" id="Camada_1" xmlns="http://www.w3.org/2000/svg" xmlns:xlink="http://www.w3.org/1999/xlink" x="0px" y="0px"
	 viewBox="0 0 300 350" style="enable-background:new 0 0 300 350;" xml:space="preserve">
<style type="text/css">
	.st0{fill:#FFFFFF;stroke:#B7B7B7;stroke-width:0.5;stroke-miterlimit:10;}
</style>
<path class="st0" d="M36.4,93.5c7.3,12.6,13.7,24,14.4,25.1c1,1.9-0.6,5.1-13.2,26.8L23.2,170H-5.9h-29.2l-14.1-24.8l-14.1-24.9
	l14.6-25.1L-34,70l28.6,0.2l28.6,0.3L36.4,93.5z M36.4-10.5c7.3,12.6,13.7,24,14.4,25.1c1,1.9-0.6,5.1-13.2,26.8L23.2,66H-5.9h-29.2
	l-14.1-24.8l-14.1-24.9l14.6-25.1L-34-34l28.6,0.2l28.6,0.3L36.4-10.5z M36.7,198.6c7.8,13.5,13.9,25.1,13.7,25.7
	c-0.3,0.7-6.8,12-14.5,25.2l-14,24H-6.8h-28.7l-13.9-24c-7.7-13.2-13.8-24.7-13.7-25.6c0.2-0.9,6.6-12.5,14.3-25.7l14-24.2h28.6
	h28.7L36.7,198.6z M111.9,226.9c1.8,1.7,27.9,48.4,27.6,49.5c-0.2,0.7-6.6,12.1-14.3,25.4l-14,24.2l-28.9-0.3l-28.9-0.2l-14.3-25
	l-14.3-25l1.9-3c1-1.6,7.3-12.5,14-24c6.7-11.6,12.6-21.5,13.1-22.1C54.7,225.3,110.6,225.7,111.9,226.9z M36.3,302.6l14.5,25.2
	L36,353l-14.7,25.3l-6.5-0.7c-3.6-0.3-16.4-0.6-28.3-0.6h-21.6l-14.3-24.8c-7.8-13.6-14.2-25.2-14.2-25.7c0-0.6,4.5-8.7,10-18
	c5.4-9.4,11.8-20.3,14.2-24.3l4.2-7.2l28.5,0.2l28.5,0.3L36.3,302.6z M214.8,302.5c7.6,13.2,13.9,24.6,13.9,25.3
	c0,0.7-6.4,12.2-14.2,25.7L200.2,378h-28.5h-28.5l-13.5-23.6c-7.4-13-13.9-24.5-14.4-25.5c-0.7-1.4,2.3-7.3,13.4-26.4L143,278
	l29,0.2l28.9,0.3L214.8,302.5z M125.7,354.7c7.7,13.6,13.9,25.2,13.8,25.8c-0.2,0.7-6.6,12.1-14.3,25.3l-14,24.2H82.6H54l-14.5-25.3
	l-14.4-25.3l11.3-19.5c6.3-10.7,12.7-21.8,14.3-24.7l3-5.2h28.9h28.9L125.7,354.7z M304.4,355.4l14.2,24.9l-14.3,24.6l-14.4,24.6
	l-28.8,0.2l-28.9,0.3l-14-24.6c-7.7-13.5-14-25-14-25.7s6.3-12.1,14-25.4l14-24.3l28.9,0.3l29,0.2L304.4,355.4z"/>
<image style="display:none;overflow:visible;" width="300" height="350" xlink:href="exercice.png" >
</image>
</svg>
